<svg xmlns="http://www.w3.org/2000/svg"
     width="100%" height="100%" viewBox="0 0 1000 750">

  <title>Competitor Logos</title>

  <script href="silverbullet.js"/>
  <style type="text/css">@import url(silverbullet.css);</style>

  <defs id="defs-1">
     <path id="heading" d="M0,60 L380,40" />
     <path id="subheading" d="M20,210 C120,240 520,240 620,210" />
  </defs>
  <style type="text/css">
    .emphasize {
      font-weight: bold;
    }

    .emphasis {
      font-size: 34px;
      font-weight: bold;
    }

    .sub {
      font-size: 23px;
    }


    text.logo {
      font-size: 30px;
      fill: purple;
      font-family: Verdana, sans-serif;
      font-weight: bold;
    }

      text.logo tspan {
        font-size: 25px;
        font-weight: normal;
      }

      text.logo .slogan,
      text.logo .slogan tspan {
        font-size: 13px;
      }

      .centered {
        text-anchor: middle;
      }

    .outline {
      stroke: hsl(300, 50%, 50%);
      stroke-dasharray: 1 9;
      fill: none;
    }
  </style>



  <rect id="bg" x="-1000" y="-1000" width="3000" height="3000" fill="black" />
  <!-- <rect id="frame" x="0" y="0" width="20%" height="20%" width="100%" height="100%"/> -->

  <text id="head" x="980" y="1em" class="heading" text-anchor="end">Competitor Logos</text>

  <g id="content" font-size="30">

    <g data-fire="1" data-blank="true" transform="translate(30,120)">
      <image href="competitor-logos/canva-logo.png" x="0" y="0" width="20%" height="20%"/>
      <image href="competitor-logos/chartio-logo.jpg" x="0" y="20%" width="20%" height="20%"/>
      <image href="competitor-logos/d3-js-logo.png" x="0" y="40%" width="20%" height="20%"/>
      <image href="competitor-logos/domo-logo.jpg" x="0" y="60%" width="20%" height="20%"/>

      <image href="competitor-logos/google-analytics-logo.jpg" x="20%" y="0" width="20%" height="20%"/>
      <image href="competitor-logos/highcharts-logo.jpg" x="20%" y="20%" width="20%" height="20%"/>
      <image href="competitor-logos/ibm-watson-analytics-logo.jpg" x="25%" y="40%" width="20%" height="20%"/>
      <image href="competitor-logos/microsoft-power-bi-logo.jpg" x="25%" y="60%" width="20%" height="20%"/>

      <image href="competitor-logos/plotly-logo.png" x="50%" y="0" width="20%" height="20%"/>
      <image href="competitor-logos/RStudio-logo.png" x="50%" y="20%" width="20%" height="20%"/>
      <image href="competitor-logos/salesforce-einstein-analytics-platform-logo.jpg" x="50%" y="40%" width="20%" height="20%"/>
      <image href="competitor-logos/sap-analytics-cloud-logo.jpg" x="50%" y="60%" width="20%" height="20%"/>

      <image href="competitor-logos/sas-logo.jpg" x="75%" y="0" width="20%" height="20%"/>
      <image href="competitor-logos/sisense-logo.jpg" x="75%" y="20%" width="20%" height="20%"/>
      <image href="competitor-logos/tableau-desktop-logo.jpg" x="75%" y="40%" width="20%" height="20%"/>
      <image href="competitor-logos/zoho-reports.jpg" x="75%" y="60%" width="20%" height="20%"/>
    </g>
  </g>
</svg>
