<svg xmlns="http://www.w3.org/2000/svg" xmlns:xlink="http://www.w3.org/1999/xlink" width="100%" height="100%" viewBox="0 0 1200 600">

  <title>UI for data</title>

  <script xlink:href="silverbullet.js"/>
  <style type="text/css">
    @import url(silverbullet.css);
  </style>

  <defs id="defs-1">
    <path id="heading" d="M0,60 L380,40"/>
    <path id="subheading" d="M20,210 C120,240 520,240 620,210"/>
  </defs>
  <style type="text/css">
    .emphasize {
      font-weight: bold;
    }
  </style>

  <rect id="bg" x="-1000" y="-1000" width="3000" height="3000" fill="black"/>

  <text id="head" x="750" y="1.5em" class="heading" text-anchor="end">UI for data</text>

  <g id="content" font-size="30">

    <g data-fire="1" data-blank="true" transform="translate(200,150)">
      <text x="80" y="0" fill="black" text-anchor="middle">common metaphor:
        <tspan x="60" dy="1em">“data visualizations are a
          <tspan font-weight="bold">story about data</tspan>”</tspan>
      </text>
      <svg x="-50" y="50" width="200" height="200" viewBox="0 0 71 100" fill="black">
        <circle cx="35.415" cy="8.333" r="8.333"></circle>
        <path
          d="M54.166,33.451v-6.25 c0-1.151-0.933-2.083-2.084-2.083 c-0.468,0-2.209,0.016-4.476,0.226 c-2.751-2.565-6.645-4.393-12.19-4.393 c-5.542,0-9.436,1.827-12.188,4.393 c-2.268-0.209-4.008-0.226-4.478-0.226 c-1.152,0-2.083,0.932-2.083,2.083v6.25 c-2.301,0-4.167,1.866-4.167,4.167 c0,2.301,1.865,4.167,4.167,4.167v6.25 c0,1.149,0.932,2.084,2.083,2.084 c4.502,0.004,12.609,0.972,15.192,3.556 c0.407,0.407,0.94,0.61,1.474,0.61s1.065-0.203,1.473-0.61 c2.584-2.584,10.693-3.552,15.193-3.556 c1.151,0,2.084-0.935,2.084-2.084v-6.25 c2.303,0,4.166-1.866,4.166-4.167 C58.332,35.317,56.468,33.451,54.166,33.451z M49.999,46.008 c-3.532,0.171-10.474,0.853-14.583,3.54 c-4.11-2.688-11.047-3.369-14.583-3.54V29.346 c4.585,0.246,10.887,1.273,13.109,3.495 c0.814,0.814,2.133,0.814,2.946,0 c2.222-2.222,8.524-3.249,13.11-3.495V46.008z"></path>
        <path d="M64.582,72.914 c0,3.455-2.795,6.254-6.25,6.254 c-3.45,0-6.25-2.799-6.25-6.254 c0-3.45,2.8-6.25,6.25-6.25 C61.787,66.664,64.582,69.464,64.582,72.914z"></path>
        <path d="M18.75,70.831 c0,3.454-2.798,6.254-6.25,6.254 c-3.453,0-6.25-2.8-6.25-6.254 c0-3.451,2.797-6.25,6.25-6.25 C15.952,64.581,18.75,67.38,18.75,70.831z"></path>
        <g>
          <path d="M41.666,77.081 c0,3.454-2.796,6.254-6.25,6.254 c-3.451,0-6.25-2.8-6.25-6.254 c0-3.451,2.799-6.25,6.25-6.25 C38.87,70.831,41.666,73.63,41.666,77.081z"></path>
        </g>
        <path d="M12.5,81.251 c-6.905,0-12.5,8.391-12.5,18.75h18.75 c0-4.105,1.499-7.865,3.971-10.774 C20.461,84.409,16.729,81.251,12.5,81.251z"></path>
        <path d="M58.332,83.335 c-4.085,0-7.702,2.222-9.981,6.173 c2.328,2.868,3.731,6.518,3.731,10.493h18.75 C70.832,89.642,65.237,83.335,58.332,83.335z"></path>
        <path d="M46.5,94.228 c-2.088-3.996-6.263-6.727-11.084-6.727 c-4.789,0-8.944,2.694-11.043,6.649 c-0.927,1.745-1.456,3.735-1.456,5.851h2.082h20.833h2.084 C47.916,97.918,47.398,95.957,46.5,94.228z"></path>
      </svg>
    </g>

    <g data-fire="1" data-blank="true" transform="translate(850,150)">
      <text x="80" y="0" fill="black" text-anchor="middle">functional metaphor:
        <tspan x="60" dy="1em">“data visualizations are a
          <tspan font-weight="bold">user interface for data</tspan>”</tspan>
      </text>
      <svg x="-50" y="50" width="217.6" height="272" viewBox="0 0 128 160">
        <g fill="black">
          <path d="M126.7,19.3 c-0.4,0-0.8,0.3-0.8,0.8V33 c0,0.4,0.3,0.8,0.8,0.8 c0.4,0,0.8-0.3,0.8-0.8V20 C127.5,19.6,127.2,19.3,126.7,19.3z "/>
          <path d="M126.7,36.5 c-0.4,0-0.8,0.3-0.8,0.8v4.2 c0,0.4,0.3,0.8,0.8,0.8 c0.4,0,0.8-0.3,0.8-0.8v-4.2 C127.5,36.8,127.2,36.5,126.7,36.5z"/>
          <path d="M70.3,27.2 C70.3,27.2,70.3,27.2,70.3,27.2l7.2-0.1 c0.4,0,0.8-0.3,0.7-0.8 c0-0.4-0.3-0.7-0.8-0.7 c0,0,0,0,0,0l-7.2,0.1 c-0.4,0-0.8,0.3-0.7,0.8 C69.5,26.9,69.8,27.2,70.3,27.2z"/>
          <path d="M94.6,9.9 c0.4,0,0.8-0.3,0.8-0.8V1.9 c0-0.4-0.3-0.8-0.8-0.8 c-0.4,0-0.8,0.3-0.8,0.8v7.2 C93.8,9.5,94.2,9.9,94.6,9.9z"/>
          <path d="M102.9,12.1 c0.1,0.1,0.3,0.1,0.4,0.1 c0.3,0,0.5-0.1,0.6-0.4l3.6-6.2 c0.2-0.4,0.1-0.8-0.3-1 c-0.4-0.2-0.8-0.1-1,0.3 l-3.6,6.2 C102.5,11.5,102.6,11.9,102.9,12.1z"/>
          <path d="M109.5,18.6 c0.1,0,0.3,0,0.4-0.1l6.2-3.5 c0.4-0.2,0.5-0.7,0.3-1 c-0.2-0.4-0.7-0.5-1-0.3l-6.2,3.5 c-0.4,0.2-0.5,0.7-0.3,1 C109,18.4,109.3,18.6,109.5,18.6z"/>
          <path d="M111.7,25.6 c-0.4,0-0.8,0.3-0.8,0.7 c0,0.4,0.3,0.8,0.7,0.8l7.2,0 c0,0,0,0,0,0 c0.4,0,0.8-0.3,0.8-0.7 c0-0.4-0.3-0.8-0.7-0.8 L111.7,25.6 C111.7,25.6,111.7,25.6,111.7,25.6z"/>
          <path d="M115.6,39.3 c0.3,0,0.5-0.1,0.7-0.4 c0.2-0.4,0.1-0.8-0.3-1l-6.2-3.6 c-0.4-0.2-0.8-0.1-1,0.3 c-0.2,0.4-0.1,0.8,0.3,1l6.2,3.6 C115.3,39.2,115.5,39.3,115.6,39.3z"/>
          <path d="M73,15l6.2,3.5 c0.1,0.1,0.2,0.1,0.4,0.1 c0.3,0,0.5-0.1,0.7-0.4 c0.2-0.4,0.1-0.8-0.3-1l-6.2-3.5 c-0.4-0.2-0.8-0.1-1,0.3 C72.5,14.3,72.7,14.8,73,15z"/>
          <path d="M85.2,11.9 c0.1,0.2,0.4,0.4,0.6,0.4 c0.1,0,0.3,0,0.4-0.1 c0.4-0.2,0.5-0.7,0.3-1L82.8,5 c-0.2-0.4-0.7-0.5-1-0.3 c-0.4,0.2-0.5,0.7-0.3,1L85.2,11.9z"/>
          <path
            d="M65.6,113.4h-4.7l-3.5-13.8H99 c2.3,0,4.1-1.8,4.1-4.1v-52 c1-3.3,2.3-6.4,4-9.2 c0.1-0.2,0.2-0.4,0.3-0.6 c0,0,0,0,0-0.1 c1.4-2.4,2-5.2,1.9-8 c-0.4-7.5-6.3-13.5-13.7-14 c-4.1-0.3-8.1,1.1-11.1,4 c-3,2.8-4.7,6.7-4.7,10.8 c0,1.2,0.1,2.4,0.4,3.5H4.6 c-2.3,0-4.1,1.8-4.1,4.1v61.5 c0,2.3,1.8,4.1,4.1,4.1h41.5l-3.5,13.8H38 c-2,0-3.5,1.6-3.5,3.5v0.4 c0,2,1.6,3.5,3.5,3.5h27.6 c2,0,3.5-1.6,3.5-3.5V117 C69.1,115,67.6,113.4,65.6,113.4z M88.3,53.1H11.8V41.3h73.5 c0.1,0.2,0.2,0.5,0.2,0.7 c0.1,0.3,0.2,0.5,0.3,0.8 c0.1,0.3,0.2,0.7,0.3,1 c0.1,0.2,0.1,0.5,0.2,0.7 c0.1,0.4,0.2,0.8,0.3,1.2 c0,0.2,0.1,0.4,0.1,0.6 c0.1,0.6,0.3,1.2,0.4,1.8 c0.2,1.3,0.4,2.6,0.6,3.9 c0,0.1,0,0.1,0,0.2 c0.1,0.1,0.1,0.3,0.2,0.4 c0,0,0.1,0.1,0.1,0.1 C88.2,52.9,88.2,53,88.3,53.1z M83.5,36.9 c0.2,0.4,0.4,0.8,0.6,1.2 c0.1,0.2,0.2,0.4,0.3,0.6 c0.2,0.3,0.3,0.7,0.4,1H11.1 c-0.4,0-0.8,0.3-0.8,0.8v13.3 c0,0.4,0.3,0.8,0.8,0.8h81.5 c0.2,0,0.4-0.1,0.6-0.3h3v38.4H7.5V36.9H83.5z M96.9,52.8h-4.4h-1.7 c-0.6,0-1.2-0.4-1.5-1 c-0.1-1.2-0.3-2.3-0.5-3.5h11.6 c-0.1,0.3-0.1,0.6-0.2,0.9 c-0.1,0.8-0.2,1.6-0.3,2.3 c-0.2,0.7-0.8,1.2-1.6,1.2 H96.9z M85.5,16.8 c2.7-2.5,6.3-3.8,10-3.6 c6.7,0.5,12,5.9,12.3,12.6 c0.1,2.5-0.5,5-1.7,7.2 c0,0,0,0,0,0.1 c-0.1,0.2-0.2,0.4-0.3,0.6 c-1.7,3-3.1,6.2-4.2,9.6 c-0.4,1.2-0.6,2.4-0.9,3.6H88.5 c-0.1-0.3-0.1-0.6-0.2-0.9 c-0.5-1.9-1-3.8-1.7-5.7 c-0.6-1.5-1.2-3-2-4.4 c0,0,0,0,0,0 c0,0,0,0,0,0 c0,0,0,0,0,0 c-0.3-0.5-0.5-1-0.8-1.6 c-0.4-0.7-0.8-1.3-1.2-1.9 c-0.3-0.6-0.5-1.2-0.7-1.8l0,0 c0,0,0,0,0,0 c-0.4-1.3-0.6-2.6-0.6-4 C81.3,22.8,82.8,19.3,85.5,16.8z M2,95.6V34.1 c0-1.4,1.2-2.6,2.6-2.6h76.1 c0,0.1,0.1,0.1,0.1,0.2 c0.2,0.5,0.4,0.9,0.6,1.4 c0,0,0,0,0,0 c0,0,0,0.1,0,0.1 c0.4,0.6,0.8,1.2,1.1,1.9 c0.1,0.1,0.1,0.3,0.2,0.4h-76 c-0.4,0-0.8,0.3-0.8,0.8v57.3 c0,0.4,0.3,0.8,0.8,0.8h90.2 c0.4,0,0.8-0.3,0.8-0.8V54.3h0.7 c1.5,0,2.7-1,3-2.5 c0-0.4,0.1-0.8,0.2-1.2 v44.9 c0,1.4-1.2,2.6-2.6,2.6H56.5 c0,0,0,0,0,0h-9.3 c0,0,0,0,0,0H4.6 C3.2,98.1,2,97,2,95.6z M47.7,99.7h8.2l3.5,13.8H44.2L47.7,99.7 z M67.6,117.4 c0,1.1-0.9,2-2,2H38 c-1.1,0-2-0.9-2-2V117 c0-1.1,0.9-2,2-2h5.3h17.1h5.3 c1.1,0,2,0.9,2,2V117.4z"/>
          <path d="M8.5,105.2 c-0.3-0.3-0.8-0.3-1.1,0 c-0.3,0.3-0.3,0.8,0,1.1l1.4,1.4 c0.1,0.1,0.3,0.2,0.5,0.2 c0.2,0,0.4-0.1,0.5-0.2 c0.3-0.3,0.3-0.8,0-1.1L8.5,105.2z"/>
          <path d="M13.2,109.9 c-0.3-0.3-0.8-0.3-1.1,0 c-0.3,0.3-0.3,0.8,0,1.1l1.4,1.4 c0.1,0.1,0.3,0.2,0.5,0.2 c0.2,0,0.4-0.1,0.5-0.2 c0.3-0.3,0.3-0.8,0-1.1L13.2,109.9z"/>
          <path d="M8.9,109.9l-1.4,1.4 c-0.3,0.3-0.3,0.8,0,1.1 c0.1,0.1,0.3,0.2,0.5,0.2 c0.2,0,0.4-0.1,0.5-0.2l1.4-1.4 c0.3-0.3,0.3-0.8,0-1.1 C9.7,109.6,9.2,109.6,8.9,109.9z"/>
          <path d="M13.6,105.2l-1.4,1.4 c-0.3,0.3-0.3,0.8,0,1.1 c0.1,0.1,0.3,0.2,0.5,0.2 c0.2,0,0.4-0.1,0.5-0.2l1.4-1.4 c0.3-0.3,0.3-0.8,0-1.1 C14.4,104.9,13.9,104.9,13.6,105.2z"/>
          <path d="M54.9,7.3 c0.1,0.1,0.3,0.2,0.5,0.2 c0.2,0,0.4-0.1,0.5-0.2 c0.3-0.3,0.3-0.8,0-1.1l-1.4-1.4 c-0.3-0.3-0.8-0.3-1.1,0 c-0.3,0.3-0.3,0.8,0,1.1L54.9,7.3z"/>
          <path d="M59.6,12 c0.1,0.1,0.3,0.2,0.5,0.2s0.4-0.1,0.5-0.2 c0.3-0.3,0.3-0.8,0-1.1l-1.4-1.4 c-0.3-0.3-0.8-0.3-1.1,0 c-0.3,0.3-0.3,0.8,0,1.1L59.6,12z"/>
          <path d="M54,12.2 c0.2,0,0.4-0.1,0.5-0.2l1.4-1.4 c0.3-0.3,0.3-0.8,0-1.1 c-0.3-0.3-0.8-0.3-1.1,0l-1.4,1.4 c-0.3,0.3-0.3,0.8,0,1.1 C53.6,12.2,53.8,12.2,54,12.2z"/>
          <path d="M58.6,7.5 c0.2,0,0.4-0.1,0.5-0.2l1.4-1.4 c0.3-0.3,0.3-0.8,0-1.1 c-0.3-0.3-0.8-0.3-1.1,0l-1.4,1.4 c-0.3,0.3-0.3,0.8,0,1.1 C58.3,7.5,58.5,7.5,58.6,7.5z"/>
          <path d="M81.5,119.4 c-0.3-0.3-0.8-0.3-1.1,0 c-0.3,0.3-0.3,0.8,0,1.1l1.4,1.4 c0.1,0.1,0.3,0.2,0.5,0.2 c0.2,0,0.4-0.1,0.5-0.2 c0.3-0.3,0.3-0.8,0-1.1L81.5,119.4z"/>
          <path d="M86.1,124.1 c-0.3-0.3-0.8-0.3-1.1,0 c-0.3,0.3-0.3,0.8,0,1.1l1.4,1.4 c0.1,0.1,0.3,0.2,0.5,0.2 c0.2,0,0.4-0.1,0.5-0.2 c0.3-0.3,0.3-0.8,0-1.1L86.1,124.1z"/>
          <path d="M81.8,124.1l-1.4,1.4 c-0.3,0.3-0.3,0.8,0,1.1 c0.1,0.1,0.3,0.2,0.5,0.2 c0.2,0,0.4-0.1,0.5-0.2l1.4-1.4 c0.3-0.3,0.3-0.8,0-1.1 C82.6,123.8,82.1,123.8,81.8,124.1z"/>
          <path d="M86.5,119.4l-1.4,1.4 c-0.3,0.3-0.3,0.8,0,1.1 c0.1,0.1,0.3,0.2,0.5,0.2 c0.2,0,0.4-0.1,0.5-0.2l1.4-1.4 c0.3-0.3,0.3-0.8,0-1.1 C87.3,119.1,86.8,119.1,86.5,119.4z"/>
          <path d="M37.8,23.3 c1.8,0,3.2-1.4,3.2-3.2 c0-1.8-1.4-3.2-3.2-3.2 c-1.8,0-3.2,1.4-3.2,3.2 C34.5,21.8,36,23.3,37.8,23.3z M37.8,18.3 c0.9,0,1.7,0.8,1.7,1.7s-0.8,1.7-1.7,1.7S36.1,21,36.1,20S36.8,18.3,37.8,18.3z"/>
          <path d="M19.9,119.4 c-1.8,0-3.2,1.4-3.2,3.2 c0,1.8,1.4,3.2,3.2,3.2s3.2-1.4,3.2-3.2 C23.1,120.9,21.6,119.4,19.9,119.4z M19.9,124.4 c-0.9,0-1.7-0.8-1.7-1.7s0.8-1.7,1.7-1.7s1.7,0.8,1.7,1.7S20.8,124.4,19.9,124.4z"/>
          <path d="M13.4,12 c0,0.4,0.3,0.8,0.8,0.8h11.4 c0.4,0,0.8-0.3,0.8-0.8s-0.3-0.8-0.8-0.8H14.1 C13.7,11.2,13.4,11.6,13.4,12z"/>
          <path d="M6.7,11.2 C6.3,11.2,6,11.6,6,12s0.3,0.8,0.8,0.8h3.7 c0.4,0,0.8-0.3,0.8-0.8s-0.3-0.8-0.8-0.8H6.7z"/>
          <path d="M6.7,8.8h8 c0.4,0,0.8-0.3,0.8-0.8s-0.3-0.8-0.8-0.8h-8 C6.3,7.3,6,7.7,6,8.1S6.3,8.8,6.7,8.8z"/>
          <path d="M18.1,8.8h2.6 c0.4,0,0.8-0.3,0.8-0.8s-0.3-0.8-0.8-0.8h-2.6 c-0.4,0-0.8,0.3-0.8,0.8S17.7,8.8,18.1,8.8z"/>
          <path d="M120,120.7 c0-0.4-0.3-0.8-0.8-0.8h-11.4 c-0.4,0-0.8,0.3-0.8,0.8 c0,0.4,0.3,0.8,0.8,0.8h11.4 C119.7,121.4,120,121.1,120,120.7z"/>
          <path d="M126.7,119.9H123 c-0.4,0-0.8,0.3-0.8,0.8 c0,0.4,0.3,0.8,0.8,0.8h3.7 c0.4,0,0.8-0.3,0.8-0.8 C127.5,120.3,127.1,119.9,126.7,119.9z"/>
          <path d="M126.7,123.9h-8 c-0.4,0-0.8,0.3-0.8,0.8 c0,0.4,0.3,0.8,0.8,0.8h8 c0.4,0,0.8-0.3,0.8-0.8 C127.5,124.2,127.1,123.9,126.7,123.9z"/>
          <path d="M115.3,123.9h-2.6 c-0.4,0-0.8,0.3-0.8,0.8 c0,0.4,0.3,0.8,0.8,0.8h2.6 c0.4,0,0.8-0.3,0.8-0.8 C116.1,124.2,115.7,123.9,115.3,123.9z"/>
          <path d="M11.1,72.2h24.2 c0.4,0,0.8-0.3,0.8-0.8V58.2 c0-0.4-0.3-0.8-0.8-0.8H11.1 c-0.4,0-0.8,0.3-0.8,0.8v13.3 C10.3,71.9,10.6,72.2,11.1,72.2z M11.8,58.9h22.7v11.8H11.8V58.9z"/>
          <path d="M39.7,72.2h24.2 c0.4,0,0.8-0.3,0.8-0.8V58.2 c0-0.4-0.3-0.8-0.8-0.8H39.7 c-0.4,0-0.8,0.3-0.8,0.8v13.3 C38.9,71.9,39.2,72.2,39.7,72.2z M40.4,58.9h22.7v11.8H40.4V58.9z"/>
          <path d="M68.3,72.2h24.2 c0.4,0,0.8-0.3,0.8-0.8V58.2 c0-0.4-0.3-0.8-0.8-0.8H68.3 c-0.4,0-0.8,0.3-0.8,0.8v13.3 C67.5,71.9,67.9,72.2,68.3,72.2z M69,58.9h22.7v11.8H69V58.9z"/>
          <path d="M11.1,89.8h38.5 c0.4,0,0.8-0.3,0.8-0.8V75.8 c0-0.4-0.3-0.8-0.8-0.8H11.1 c-0.4,0-0.8,0.3-0.8,0.8v13.3 C10.3,89.5,10.6,89.8,11.1,89.8z M11.8,76.6h37v11.8h-37V76.6z"/>
          <path d="M92.5,75.1H54 c-0.4,0-0.8,0.3-0.8,0.8v13.3 c0,0.4,0.3,0.8,0.8,0.8h38.5 c0.4,0,0.8-0.3,0.8-0.8V75.8 C93.3,75.4,92.9,75.1,92.5,75.1z M91.8,88.3h-37V76.6h37V88.3z"/>
          <path
            d="M111.4,50.1v48.8 c0,0.4,0.3,0.8,0.8,0.8h10.2 c0.4,0,0.8-0.3,0.8-0.8V50.1 c0-0.4-0.3-0.8-0.8-0.8h-10.2 C111.8,49.3,111.4,49.6,111.4,50.1z M112.9,50.8h8.7v5.9h-4.2 c-0.4,0-0.8,0.3-0.8,0.8s0.3,0.8,0.8,0.8h4.2v6.9h-3 c-0.4,0-0.8,0.3-0.8,0.8 c0,0.4,0.3,0.8,0.8,0.8h3v7.1h-4.2 c-0.4,0-0.8,0.3-0.8,0.8 c0,0.4,0.3,0.8,0.8,0.8h4.2v6.9h-3 c-0.4,0-0.8,0.3-0.8,0.8s0.3,0.8,0.8,0.8h3v7.1h-4.2 c-0.4,0-0.8,0.3-0.8,0.8 c0,0.4,0.3,0.8,0.8,0.8h4.2v5.9h-8.7V50.8z"/>
          <path
            d="M81.5,113.8 C81.5,113.8,81.5,113.8,81.5,113.8l33.6,0 c0,0,0.1,0,0.1,0 c0,0,0.1,0,0.1,0 c0.1,0,0.2,0,0.3-0.1l7.1-3.2 c0.3-0.1,0.4-0.4,0.4-0.7 c0-0.3-0.2-0.6-0.4-0.7l-7.1-3.2 c-0.1-0.1-0.3-0.1-0.4,0 c0,0-0.1,0-0.1,0H77.7 c-2,0-3.7,1.7-3.7,3.7v0.4 c0,2,1.7,3.7,3.7,3.7L81.5,113.8 C81.5,113.8,81.5,113.8,81.5,113.8z M115.8,111.9v-4.2l4.7,2.1L115.8,111.9z M114.3,112.3H82.3 v-4.8h32.1V112.3z M75.5,110.1v-0.4 c0-1.2,1-2.2,2.2-2.2h3v4.8h-3 C76.5,112.3,75.5,111.3,75.5,110.1z"/>
          <path d="M88.7,110.6h5 c0.4,0,0.8-0.3,0.8-0.8 c0-0.4-0.3-0.8-0.8-0.8h-5 c-0.4,0-0.8,0.3-0.8,0.8 C87.9,110.3,88.2,110.6,88.7,110.6z"/>
          <path d="M100.7,110.6h5 c0.4,0,0.8-0.3,0.8-0.8 c0-0.4-0.3-0.8-0.8-0.8h-5 c-0.4,0-0.8,0.3-0.8,0.8 C100,110.3,100.3,110.6,100.7,110.6 z"/>
        </g>
      </svg>
    </g>

    <g transform="translate(800, 480)" class="bullet" visibility="hidden">
      <text x="0" y="0" fill="black">each type of dataviz
        <tspan x="20" dy="1.1em">is optimized to help the user</tspan>
        <tspan x="20" dy="1.1em">accomplish specific tasks</tspan>
        <tspan x="20" dy="1.1em">with different kinds of data</tspan>
      </text>
    </g>

    <!-- <g transform="translate(850, 480)" class="bullet" visibility="hidden"> <text x="0" y="0" fill="black">examples: <tspan x="20" dy="1em">bar charts help you find</tspan> <tspan x="20" dy="1em">high and low values</tspan> <tspan x="20"
    dy="1em">with the data</tspan> </text> </g> -->

    <g data-fire="1" data-blank="true" transform="translate(10,150)">
      <text>Different types of data visualizations are optimized for performing different tasks

        <tspan x="20" dy="1.5em">comparison to whole</tspan>
        <tspan x="20" dy="1.5em">comparison to other datapoints</tspan>
        <tspan x="20" dy="1.5em">trend over time</tspan>
        <tspan x="20" dy="1.5em">breakdown of categories</tspan>
        <tspan x="20" dy="1.5em">connection between items</tspan>
      </text>
    </g>

    <g data-fire="1" data-blank="true" transform="translate(10,150)">
      <text>Break down interface into sets of tasks oriented around optimizations
      </text>
    </g>

  </g>

</svg>
