<svg xmlns="http://www.w3.org/2000/svg"
     xmlns:xlink="http://www.w3.org/1999/xlink"
     width="100%" height="100%" viewBox="0 0 1700 950">

  <title>ParaCharts Architecture</title>

  <script href="_silverbullet.js"/>
  <style type="text/css">@import url(_silverbullet.css);</style>
  <style type="text/css">
    .subhead {
      font-size: 40px;
      font-weight: bold;
    }

    .headerbox {
      fill: purple;
      stroke: none;
    }

    .headerbox text {
      fill: white;
    }

    #content {
      font-size: 45px;
      text-anchor: middle;
    }

    .heading {
      text-anchor: middle;
    }

    .list {
      font-size: 35px;
      text-anchor: middle;
    }

    .label {
      font-size: 30px;
    }

    .label .list {
      font-size: 25px;
    }

    .connector {
      fill: none;
      stroke: purple;
      stroke-width: 8px;
      stroke-linecap: round;
      marker-end: url(#endArrow);
    }

    #endArrow {
      fill: purple;
      stroke: purple;
      stroke-width: 1px;
      stroke-linejoin: round;
    }

  </style>

  <defs id="defs-1">
    <marker id="endArrow" viewBox="-13 -6 37.5 30" markerUnits="strokeWidth"
        refX="-4" refY="0" markerWidth="10" markerHeight="20" orient="auto"
        class="process">
      <path d="M-10,-5 L0,0 -10,5 Z"/>
    </marker>

    <marker id="marker-circle" viewBox="-10.1 -10.1 20.2 20.2" markerUnits="strokeWidth"
      refX="0" refY="0" markerWidth="6" markerHeight="6">
      <circle r="5" />
    </marker>

    <svg id="gear-icon" viewBox="3 4 18 18" overflow="visible">
      <circle cx="3" cy="4" r="4" fill="white"/>
      <path transform="translate(-9,-9)" fill-rule="evenodd" d="M20,14.5
        v-2.9 
        l-1.8-0.3
        c-0.1-0.4-0.3-0.8-0.6-1.4 
        l1.1-1.5
        l-2.1-2.1
        l-1.5,1.1 
        c-0.5-0.3-1-0.5-1.4-0.6
        L13.5,5
        h-2.9 
        l-0.3,1.8 
        C9.8,6.9,9.4,7.1,8.9,7.4 
        L7.4,6.3
        L5.3,8.4
        l1,1.5
        c-0.3,0.5-0.4,0.9-0.6,1.4 
        L4,11.5
        v2.9
        l1.8,0.3
        c0.1,0.5,0.3,0.9,0.6,1.4 
        l-1,1.5 
        l2.1,2.1
        l1.5-1
        c0.4,0.2,0.9,0.4,1.4,0.6 
        l0.3,1.8
        h3
        l0.3-1.8
        c0.5-0.1,0.9-0.3,1.4-0.6
        l1.5,1.1
        l2.1-2.1
        l-1.1-1.5
        c0.3-0.5,0.5-1,0.6-1.4 
        L20,14.5
        z 
        M12,16
        c-1.7,0-3-1.3-3-3
        s1.3-3,3-3
        s3,1.3,3,3
        S13.7,16,12,16
        z" />
    </svg>

    <svg id="language-icon" viewBox="0 0 100 100" overflow="visible">
      <g>
        <path d="M82.1,2.5H17.9c-7.5,0-13.6,6.1-13.6,13.6v44.8c0,7.5,6.1,13.6,13.6,13.6h15.2c0,3.9-0.7,9.1-2.8,14.6     C29.3,91.5,30,94.2,32,96c1.2,1,2.6,1.5,4.1,1.5c1,0,2.1-0.3,3.1-0.8c10.3-5.9,19-16,23.7-22.2h19.3c7.5,0,13.6-6.1,13.6-13.6     V16.1C95.7,8.6,89.6,2.5,82.1,2.5z M90.8,60.9c0,4.8-3.9,8.7-8.7,8.7H61.6c-0.8,0-1.5,0.4-2,1c-4.2,5.7-12.8,16.1-22.9,21.8     c-0.7,0.4-1.3,0-1.5-0.2c-0.2-0.2-0.7-0.7-0.4-1.4c2.9-7.5,3.3-14.4,3.1-18.9c-0.1-1.3-1.1-2.3-2.5-2.3H17.9     c-4.8,0-8.7-3.9-8.7-8.7V16.1c0-4.8,3.9-8.7,8.7-8.7h64.2c4.8,0,8.7,3.9,8.7,8.7V60.9z"/>
        <path d="M50,12.8c-14.6,0-26.4,11.9-26.4,26.4c0,14.6,11.9,26.4,26.4,26.4c14.6,0,26.4-11.9,26.4-26.4     C76.4,24.7,64.6,12.8,50,12.8z M40.6,18.8c-1.3,1.9-2.4,4.2-3.2,6.8c-1.4-0.4-2.8-0.8-4.1-1.3C35.3,21.9,37.8,20.1,40.6,18.8z      M30.9,27.4c1.7,0.7,3.6,1.4,5.5,1.9c-0.5,2.5-0.9,5.2-1,8h-7.8C27.9,33.7,29,30.3,30.9,27.4z M30.9,51.1c-1.8-2.9-3-6.3-3.3-9.9     h7.8c0.1,2.8,0.5,5.5,1,8C34.5,49.7,32.6,50.3,30.9,51.1z M33.3,54.3c1.3-0.5,2.7-1,4.1-1.4c0.9,2.6,1.9,4.9,3.2,6.8     C37.8,58.4,35.3,56.6,33.3,54.3z M48,61.3c-2.6-1.1-5.2-4.4-6.8-9.2c2.2-0.4,4.5-0.6,6.8-0.7V61.3z M48,47.5     c-2.7,0.1-5.3,0.4-7.9,0.9c-0.5-2.2-0.8-4.6-0.9-7.1H48V47.5z M48,37.3h-8.7c0.1-2.6,0.4-5,0.9-7.1c2.5,0.5,5.2,0.8,7.9,0.9V37.3     z M48,27.1c-2.4-0.1-4.6-0.3-6.8-0.7c1.7-4.8,4.2-8.1,6.8-9.2V27.1z M66.7,24.2c-1.3,0.5-2.7,1-4.1,1.4c-0.9-2.6-1.9-4.9-3.2-6.8     C62.2,20.1,64.7,21.9,66.7,24.2z M52,17.1c2.6,1.1,5.2,4.4,6.8,9.2c-2.2,0.4-4.5,0.6-6.8,0.7V17.1z M52,31     c2.7-0.1,5.3-0.4,7.9-0.9c0.5,2.2,0.8,4.6,0.9,7.1H52V31z M52,41.2h8.7c-0.1,2.6-0.4,5-0.9,7.1c-2.5-0.5-5.2-0.8-7.9-0.9V41.2z      M52,61.3v-10c2.4,0.1,4.6,0.3,6.8,0.7C57.1,56.9,54.6,60.2,52,61.3z M59.4,59.7c1.3-1.9,2.4-4.2,3.2-6.8     c1.4,0.4,2.8,0.8,4.1,1.4C64.7,56.6,62.2,58.4,59.4,59.7z M69.1,51.1c-1.8-0.7-3.6-1.4-5.5-1.9c0.5-2.5,0.9-5.2,1-8h7.8     C72.1,44.8,71,48.2,69.1,51.1z M72.4,37.3h-7.8c-0.1-2.8-0.5-5.5-1-8c1.9-0.5,3.8-1.2,5.5-1.9C71,30.3,72.1,33.7,72.4,37.3z"/>
      </g>
    </svg>

    <svg id="data-icon" viewBox="0 0 73 73" overflow="visible">
      <path d="M62.8598633,17.5893555h-27.619873c-1.25,0-2.3901367-0.6201172-3.0700684-1.6704102l-3.4899902-5.4599609    c-1.0400391-1.6298828-2.8100586-2.6000977-4.7399902-2.6000977H10.1298828c-2.7199707,0-5.6298828,2-5.6298828,7.6303711    c0.0071936,58.9542923,0.004909,40.2334404,0.0053711,44.0185547c0,3.105957,2.5273438,5.6333008,5.6337891,5.6333008    l52.7260742-0.0019531c3.1064453,0,5.6333008-2.5268555,5.6333008-5.6333008   C68.4986877,55.9904518,68.4979935,72.20578,68.5,25.2192383C68.5,19.5991211,65.5899658,17.5893555,62.8598633,17.5893555z   M66.4985352,59.5058594c0,2.003418-1.6298828,3.6333008-3.6333008,3.6333008l-52.7260742,0.0019531   c-2.0039063,0-3.6337891-1.6298828-3.6337891-3.6333008V30.6245117c7.5751114,0,50.8772202,0,59.9931641,0V59.5058594z     M66.5,28.6245117h-4.7456055v-2.2226563c0-1.8261719-1.4858398-3.3125-3.3125-3.3125H14.074707    c-1.8266602,0-3.3125,1.4863281-3.3125,3.3125v2.2226563H6.5V15.4892578c0-3.5302734,1.3598633-5.6303711,3.6298828-5.6303711    h13.8100586c1.2399902,0,2.3800049,0.6303711,3.0600586,1.6801758l3.4899902,5.4599609    c1.039917,1.6201172,2.8099365,2.590332,4.75,2.590332h27.619873c2.2800293,0,3.6401367,2.1098633,3.6401367,5.6298828V28.6245117    z"/>
      <path d="M36.5019531,34.2314453c-6.9760742,0-12.6513672,5.675293-12.6513672,12.6518555    c0,6.9755859,5.675293,12.6513672,12.6513672,12.6513672s12.6513672-5.6757813,12.6513672-12.6513672    C49.1533203,39.9067383,43.4780273,34.2314453,36.5019531,34.2314453z M40.4360352,46.9477539h-0.8349609v5.9404297    c0,0.8500977-0.6918945,1.5419922-1.5424805,1.5419922h-3.1132813c-0.8505859,0-1.5424805-0.6918945-1.5424805-1.5419922    v-5.9404297h-0.8334961c-1.3372993,0-2.041544-1.5971184-1.1328125-2.5839844l3.5732422-3.8808594    c0.8109398-0.8779144,2.1905441-0.8695335,2.9916992,0.0019531l3.5683594,3.8798828    C42.4744949,45.3495216,41.7761459,46.9477539,40.4360352,46.9477539z"/>
    </svg>




    <svg id="draw-icon" viewBox="0 0 64 64" overflow="visible">
      <path d="M52.025,9.581H11.975a3.249,3.249,0,0,0-3.246,3.246V41.4a3.249,3.249,0,0,0,3.246,3.246H38.621l9.15,9.151a2.126,2.126,0,0,0,3,0l1.81-1.811h0a2.122,2.122,0,0,0,0-3l-4.336-4.337h3.777A3.249,3.249,0,0,0,55.271,41.4V12.827A3.249,3.249,0,0,0,52.025,9.581ZM32.057,35.254l-.4-2.384,2.384.4L47.828,47.055,45.843,49.04Zm3.172-3.626a.992.992,0,0,0-.542-.279l-4.082-.683a1,1,0,0,0-1.151,1.151l.683,4.082a1,1,0,0,0,.279.542l2.835,2.835H18.59V14.95H49.9V39.276H42.877ZM51.17,50.572l-1.81,1.811a.125.125,0,0,1-.174,0l-1.929-1.929,1.986-1.985L51.171,50.4A.14.14,0,0,1,51.17,50.572Zm2.1-9.172a1.247,1.247,0,0,1-1.246,1.246H46.248l-1.371-1.37H50.9a1,1,0,0,0,1-1V13.95a1,1,0,0,0-1-1H17.59a1,1,0,0,0-1,1V40.276a1,1,0,0,0,1,1H35.251l1.37,1.37H11.975A1.247,1.247,0,0,1,10.729,41.4V12.827a1.247,1.247,0,0,1,1.246-1.246h40.05a1.247,1.247,0,0,1,1.246,1.246ZM14.579,26.155v1.917a1,1,0,0,1-2,0V26.155a1,1,0,0,1,2,0Zm31.513-4.17a1,1,0,1,1-1.771.93,4.49,4.49,0,0,0-3.987-2.7H40.3c-2.6.019-5.337,2.253-7.143,5.829-1.258,2.49-2.919,3.973-4.937,4.409a5.828,5.828,0,0,1-1.228.129A8.252,8.252,0,0,1,22.3,28.9a1,1,0,0,1,1.253-1.559A5.818,5.818,0,0,0,27.812,28.5c1.394-.306,2.592-1.434,3.561-3.354,2.145-4.247,5.561-6.9,8.913-6.926A6.4,6.4,0,0,1,46.092,21.985Z"/>
    </svg>

    <svg id="text-icon" viewBox="0 0 32 32" overflow="visible">
      <path d="M22,9H10a1,1,0,0,0-1,1v4a1,1,0,0,0,1,1h3v7a1,1,0,0,0,1,1h4a1,1,0,0,0,1-1V15h3a1,1,0,0,0,1-1V10A1,1,0,0,0,22,9Zm-1,4H18a1,1,0,0,0-1,1v7H15V14a1,1,0,0,0-1-1H11V11H21Z"/><path d="M31,6V4a3,3,0,0,0-3-3H26a3,3,0,0,0-3,3H9A3,3,0,0,0,6,1H4A3,3,0,0,0,1,4V6A3,3,0,0,0,4,9V23a3,3,0,0,0-3,3v2a3,3,0,0,0,3,3H6a3,3,0,0,0,3-3H23a3,3,0,0,0,3,3h2a3,3,0,0,0,3-3V26a3,3,0,0,0-3-3V9A3,3,0,0,0,31,6ZM25,4a1,1,0,0,1,1-1h2a1,1,0,0,1,1,1V6a1,1,0,0,1-1,1H26a1,1,0,0,1-1-1ZM3,6V4A1,1,0,0,1,4,3H6A1,1,0,0,1,7,4V6A1,1,0,0,1,6,7H4A1,1,0,0,1,3,6ZM7,28a1,1,0,0,1-1,1H4a1,1,0,0,1-1-1V26a1,1,0,0,1,1-1H6a1,1,0,0,1,1,1Zm22-2v2a1,1,0,0,1-1,1H26a1,1,0,0,1-1-1V26a1,1,0,0,1,1-1h2A1,1,0,0,1,29,26Zm-3-3a3,3,0,0,0-3,3H9a3,3,0,0,0-3-3V9A3,3,0,0,0,9,6H23a3,3,0,0,0,3,3Z"/>
    </svg>

    <svg id="chart-icon" viewBox="0 0 24 24" overflow="visible">
      <path d="M23,20.75H20.25V8.7a.7461.7461,0,0,0,.5-.7.75.75,0,0,0-1.5,0,.7078.7078,0,0,0,.19.48,16.5825,16.5825,0,0,1-2.13,2.84.8245.8245,0,0,0-.31-.07.7555.7555,0,0,0-.75.75.7306.7306,0,0,0,.06.3,6.0756,6.0756,0,0,1-1.75,1.22.7217.7217,0,0,0-.56-.27.7353.7353,0,0,0-.73.65,5.3057,5.3057,0,0,1-1.54.01.7441.7441,0,0,0-.73-.66.7642.7642,0,0,0-.54.23,4.5788,4.5788,0,0,1-1.16-.95,5.0385,5.0385,0,0,0-.56-.5c0-.01.01-.02.01-.03A.7555.7555,0,0,0,8,11.25a.7475.7475,0,0,0-.74.72c-.73.41-1.46,1.49-2.22,3.29-.01,0-.03-.01-.04-.01a.7555.7555,0,0,0-.75.75.7461.7461,0,0,0,.5.7v4.05H3.25V1a.25.25,0,0,0-.5,0V2.75H2a.25.25,0,0,0,0,.5h.75v1.5H1a.25.25,0,0,0,0,.5H2.75v1.5H2a.25.25,0,0,0,0,.5h.75v1.5H1a.25.25,0,0,0,0,.5H2.75v1.5H2a.25.25,0,0,0,0,.5h.75v1.5H1a.25.25,0,0,0,0,.5H2.75v1.5H2a.25.25,0,0,0,0,.5h.75v1.5H1a.25.25,0,0,0,0,.5H2.75v1.5H2a.25.25,0,0,0,0,.5h.75v1.5H2a.25.25,0,0,0,0,.5h.75V22a.25.25,0,0,0,.5,0v-.75h1.5V22a.25.25,0,0,0,.5,0v-.75h1.5V23a.25.25,0,0,0,.5,0V21.25h1.5V22a.25.25,0,0,0,.5,0v-.75h1.5V23a.25.25,0,0,0,.5,0V21.25h1.5V22a.25.25,0,0,0,.5,0v-.75h1.5V23a.25.25,0,0,0,.5,0V21.25h1.5V22a.25.25,0,0,0,.5,0v-.75h1.5V23a.25.25,0,0,0,.5,0V21.25h1.5V22a.25.25,0,0,0,.5,0v-.75H23a.25.25,0,0,0,0-.5Zm-15.25,0H5.25V16.7a.7361.7361,0,0,0,.25-1.25,6.8409,6.8409,0,0,1,1.91-3,.7761.7761,0,0,0,.34.25Zm3,0H8.25V12.7a.8526.8526,0,0,0,.3-.19,3.2444,3.2444,0,0,1,.38.37,5.464,5.464,0,0,0,1.33,1.06c0,.02-.01.04-.01.06a.7461.7461,0,0,0,.5.7Zm3,0h-2.5V14.7a.7507.7507,0,0,0,.37-.31,4.5841,4.5841,0,0,0,.83.09,4.8838,4.8838,0,0,0,.93-.09.7507.7507,0,0,0,.37.31Zm3,0h-2.5V14.7a.7461.7461,0,0,0,.5-.7v-.01a6.8491,6.8491,0,0,0,1.91-1.33c.03.01.06.03.09.04Zm3,0h-2.5V12.7a.7154.7154,0,0,0,.41-1.03,16.5349,16.5349,0,0,0,2.09-2.76Z"/>
      <path d="M7,3.75H9a.25.25,0,0,0,0-.5H7a.25.25,0,0,0,0,.5Z"/>
      <path d="M7,4.75h4a.25.25,0,0,0,0-.5H7a.25.25,0,0,0,0,.5Z"/>
      <circle cx="5.5" cy="4" r="0.75"/>
      <path d="M14,4.25h3a.25.25,0,0,0,0-.5H14a.25.25,0,0,0,0,.5Z"/>
      <path d="M14,5.25h2a.25.25,0,0,0,0-.5H14a.25.25,0,0,0,0,.5Z"/>
      <path d="M14,3.25h1a.25.25,0,0,0,0-.5H14a.25.25,0,0,0,0,.5Z"/>
      <circle cx="12.5" cy="4" r="0.75"/>
    </svg>

    <svg id="json-icon" viewBox="0 0 64 64" overflow="visible">
      <path d="M27.25,42.07h1.29a.52.52,0,0,1,.52.52v1.25a.52.52,0,0,1-.52.52H27.25a.52.52,0,0,1-.52-.52V42.59A.52.52,0,0,1,27.25,42.07Z" /> 
      <path d="M31.35,42.07h1.3a.51.51,0,0,1,.51.51v1.27a.51.51,0,0,1-.51.51h-1.3a.51.51,0,0,1-.51-.51V42.58A.51.51,0,0,1,31.35,42.07Z" /> 
      <path d="M35.46,42.07h1.3a.51.51,0,0,1,.51.51v1.27a.51.51,0,0,1-.51.51H35.45a.51.51,0,0,1-.51-.51V42.58A.51.51,0,0,1,35.46,42.07Z" /> 
      <path d="M22.11,40.34a3.44,3.44,0,0,1,.93.83,2.86,2.86,0,0,1,.47,1.16,10.16,10.16,0,0,1,.13,1.82,12.19,12.19,0,0,0,0,1.22,1.45,1.45,0,0,0,.15.6.51.51,0,0,0,.27.27,3.18,3.18,0,0,0,.55.12.77.77,0,0,1,.52.31,1.1,1.1,0,0,1,.21.7q0,1-1.23,1a2.87,2.87,0,0,1-1.36-.32,2.3,2.3,0,0,1-.93-.9,2.8,2.8,0,0,1-.33-1.34c0-.85,0-1.53-.05-2a6.28,6.28,0,0,0-.08-1,1.87,1.87,0,0,0-.37-.85,2.91,2.91,0,0,0-.64-.53,2.3,2.3,0,0,1-.57-.44,1,1,0,0,1-.17-.63,1,1,0,0,1,.49-.93,4.62,4.62,0,0,0,.86-.64,1.43,1.43,0,0,0,.36-.68,4.08,4.08,0,0,0,.12-.9c0-.33,0-1.11.05-2.36a2.45,2.45,0,0,1,2.62-2.54c.82,0,1.23.34,1.23,1a1.15,1.15,0,0,1-.2.71.74.74,0,0,1-.53.3,1.69,1.69,0,0,0-.68.21.67.67,0,0,0-.25.51,12.79,12.79,0,0,0-.08,1.5,11.7,11.7,0,0,1-.13,1.77,2.78,2.78,0,0,1-.44,1.17A3.05,3.05,0,0,1,22.11,40.34Z" /> 
      <path d="M40.93,39.46a2.78,2.78,0,0,1-.44-1.17,11.7,11.7,0,0,1-.13-1.77,12.79,12.79,0,0,0-.08-1.5.67.67,0,0,0-.25-.51,1.69,1.69,0,0,0-.68-.21.74.74,0,0,1-.53-.3,1.15,1.15,0,0,1-.2-.71c0-.66.41-1,1.23-1a2.45,2.45,0,0,1,2.62,2.54c0,1.25,0,2,.05,2.36a4.08,4.08,0,0,0,.12.9,1.43,1.43,0,0,0,.36.68,4.62,4.62,0,0,0,.86.64,1,1,0,0,1,.49.93,1,1,0,0,1-.17.63,2.3,2.3,0,0,1-.57.44,2.91,2.91,0,0,0-.64.53,1.87,1.87,0,0,0-.37.85,6.28,6.28,0,0,0-.08,1c0,.51,0,1.19-.05,2a2.8,2.8,0,0,1-.33,1.34,2.3,2.3,0,0,1-.93.9,2.87,2.87,0,0,1-1.36.32q-1.23,0-1.23-1a1.1,1.1,0,0,1,.21-.7.77.77,0,0,1,.52-.31,3.18,3.18,0,0,0,.55-.12.51.51,0,0,0,.27-.27,1.45,1.45,0,0,0,.15-.6,12.19,12.19,0,0,0,0-1.22,10.16,10.16,0,0,1,.13-1.82A2.86,2.86,0,0,1,41,41.17a3.44,3.44,0,0,1,.93-.83A3.05,3.05,0,0,1,40.93,39.46Z" /> 
      <path d="M49.5,4H21.09L9.5,15.59V55a5,5,0,0,0,5,5h35a5,5,0,0,0,5-5V9A5,5,0,0,0,49.5,4Zm-29,3.41v5.26C20.5,14,19,15,17.75,15H12.91ZM17.75,17c2.25,0,4.75-1.78,4.75-4.33V6h27a3,3,0,0,1,3,3V21h-41V17ZM49.5,58h-35a3,3,0,0,1-3-3V23h41V55A3,3,0,0,1,49.5,58Z" />
    </svg>

    <svg id="old-compose-icon" viewBox="0 0 50 50" overflow="visible" style="fill:none;">
      <path d="M43.73 ,6.16 L7.49 ,6.16 C5.21 ,6.16  3.36 ,8.00  3.36 ,10.27 L3.36 ,30.95 C3.36 ,33.22  5.21 ,35.06  7.49 ,35.06 L18.00 ,35.06 C18.70 ,35.06  19.37 ,35.38  19.80 ,35.93 L24.98 ,42.46 C25.13 ,42.65  25.36 ,42.76  25.60 ,42.76 C25.84 ,42.76  26.07 ,42.65  26.22 ,42.46 L31.37 ,35.94 C31.82 ,35.38  32.49 ,35.06  33.18 ,35.06 L43.72 ,35.06 C45.98 ,35.06  47.83 ,33.22  47.83 ,30.95 L47.83 ,10.27 C47.83 ,8.1138  46.1699 ,6.3456  44.0666 ,6.1737 C43.9556 ,6.1646  43.8433 ,6.16  43.73 ,6.16 Z" style="fill:none;fill-rule:nonzero;"/>
    </svg>

    <svg id="salience-icon" viewBox="0 0 100 100" overflow="visible">
      <path d="M41,38H22c-1.65,0-3,1.35-3,3s1.35,3,3,3h19c1.65,0,3-1.35,3-3s-1.35-3-3-3Z"/>
      <path d="M71,20H22c-1.65,0-3,1.35-3,3s1.35,3,3,3h49c1.65,0,3-1.35,3-3s-1.35-3-3-3Z"/>
      <path d="M38,56H22c-1.65,0-3,1.35-3,3s1.35,3,3,3h16c1.65,0,3-1.35,3-3s-1.35-3-3-3Z"/>
      <path d="M55,74H22c-1.65,0-3,1.35-3,3s1.35,3,3,3H55c1.65,0,3-1.35,3-3s-1.35-3-3-3Z"/>
      <path d="M80.56,73.44l-6.89-11.32,.52-.55c2.46-2.62,3.81-6.01,3.81-9.57,0-7.72-6.28-14-14-14s-14,6.28-14,14,6.28,14,14,14c1.27,0,2.55-.18,3.82-.54l.73-.21,6.89,11.31c.55,.9,1.51,1.44,2.57,1.44,.55,0,1.09-.15,1.56-.44,1.41-.86,1.86-2.71,1-4.12Zm-16.56-13.44c-4.41,0-8-3.59-8-8s3.59-8,8-8,8,3.59,8,8-3.59,8-8,8Z"/>
    </svg>
    

    <svg id="compose-icon" viewBox="0 0 512 512" overflow="visible">
      <path d="M143.98,182.374a6,6,0,0,1,6-6H334.249a6,6,0,0,1,0,12H149.98A6,6,0,0,1,143.98,182.374Zm6,41.672H359.938a6,6,0,0,0,0-12H149.98a6,6,0,1,0,0,12Zm327.269-29.175L412.358,312.03v83.3c0,16.91-12.776,30.668-28.479,30.668H167.313c-.112,2.6-.176,5.336-.176,8.24a6,6,0,0,1-6,6H76.208a6,6,0,0,1-6-6c0-36.155-9.36-46.572-19.27-57.6-9.527-10.6-19.378-21.566-19.378-52.14a85.826,85.826,0,0,1,60.753-81.972V40.669c0-16.91,12.776-30.669,28.48-30.669H295.537a6,6,0,0,1,4.435,1.959l110.821,121.61a6,6,0,0,1,1.565,4.042v48.218l11.87-20.313a25.857,25.857,0,0,1,34.6-9.536l8.586,4.737a25.113,25.113,0,0,1,9.837,34.154ZM454.931,210.4l-32.509-18.006-70.639,120.9L387.9,331.422ZM337.382,318.1l0-2.3a6,6,0,0,1,.819-3.04l12.578-21.526H196.2a85.038,85.038,0,0,1,6.459,26.868Zm12.017,7.422.073,32.745,28.738-18.279ZM301.584,31.543l.312,100.068h90.877ZM104.313,239.789A85.667,85.667,0,0,1,149.9,245.3c.028,0,.054,0,.081,0H359.938a6,6,0,1,1,0,12H170.3a86.307,86.307,0,0,1,19.643,21.936H357.786l42.572-72.861V143.611H295.914a6,6,0,0,1-6-5.982L289.554,22H120.793c-9.087,0-16.48,8.375-16.48,18.669Zm21.994,109.488V318.088a9.066,9.066,0,1,0-18.132,0v31.189a9.066,9.066,0,1,0,18.132,0Zm28.914,78.958c1.039-36.391,11.572-49.612,20.921-61.345,7.93-9.952,14.78-18.548,14.78-42.395a73.681,73.681,0,1,0-147.362,0c0,25.975,7.555,34.383,16.3,44.119,9.943,11.064,21.143,23.528,22.255,59.621H111.24V369.46a21.1,21.1,0,0,1-15.065-20.183V318.088a21.066,21.066,0,1,1,42.132,0v31.189A21.1,21.1,0,0,1,123.24,369.46v58.775ZM400.358,333.7l-4.753,8.581a6,6,0,0,1-2.029,2.155l-46.86,29.8a6,6,0,0,1-9.22-5.049l0-1.216H210.425a6,6,0,1,1,0-12H337.467l-.058-25.875H202.792c-1.1,23.976-9.309,34.286-17.266,44.273C178.4,383.31,171.089,392.5,168.309,414h215.57c9.087,0,16.479-8.374,16.479-18.668Zm67.523-154.619a12.527,12.527,0,0,0-6.266-7.853l-8.586-4.737a13.78,13.78,0,0,0-18.44,5.082l-6.111,10.459L460.745,199.9l6.006-10.843A12.52,12.52,0,0,0,467.881,179.077ZM149.98,141.7H254.959a6,6,0,0,0,0-12H149.98a6,6,0,1,0,0,12Zm0-45.427h50.151a6,6,0,0,0,0-12H149.98a6,6,0,0,0,0,12Zm1.137,353.1H83.364a6,6,0,1,0,0,12h67.753a6,6,0,1,0,0-12Zm-9.345,20.318H92.709a6,6,0,0,0,0,12h49.063a6,6,0,0,0,0-12ZM130.1,490h-25.72a6,6,0,1,0,0,12H130.1a6,6,0,0,0,0-12Z"/>
    </svg>

  </defs>

  <rect x="0" y="0" width="100%" height="100%" fill="none" stroke="none" stroke-width="3"/>
 
  <text id="head" x="850" y="1.4em" class="heading">ParaCharts Architecture</text>
 
  <g id="content">
    <g id="browser-frame" data-fire="13" data-blank="true">
      <rect x="10" y="10" width="1680" height="930" rx="20" ry="20" fill="none" stroke="hsl(0, 0%, 30%)" stroke-width="5"/>
      <path d="M10,90 V30 Q10,10 30,10 H1660 Q1690,10 1690,30 V90 Z 
        M1600,20 V80 H600 V20 Z 
        M50,20 A30,30 0 1 1 49,20 Z 
        M57,38 L35,50 L57,63 Z 
        M130,20 A30,30 0 1 1 129,20 Z 
        M123,38 L145,50 L123,63 Z
        M210,20 A30,30 0 1 1 209,20 Z"
        fill-rule="evenodd" fill="hsl(0, 0%, 30%)" stroke="hsl(0, 0%, 30%)" stroke-width="5" />  
    </g>

    <g  transform="translate(0,30)">
      <g data-fire="1" data-forget="2" data-blank="true" transform="translate(850,150)">
        <text>Taxonomy of line chart trend types</text>
        <image href="assets/chart-trend-types.jpg" x="-350" y="20" width="700"/>      
      </g>

      <g data-fire="2" data-forget="3" data-blank="true" transform="translate(850,250)">
        <text>Humans select natural line breaks and chart trend
          <tspan x="0" dy="2.5rem" class="list">build corpus of training data</tspan>
        </text>
        <image href="assets/training-line-breaks.jpg" x="-400" y="60" width="800"/>      
      </g>

      
      <g data-fire="3" data-blank="true" transform="translate(850,750)">
        <text class="label">raw data</text>
        <use href="#data-icon" x="-50" y="-420" width="100" fill="hsl(300, 100%, 25%)"/>
        <path data-fire="3" data-blank="true" d="M0,-30 L0,-115" class="connector"/>
      </g>

      
      <g data-fire="3" data-blank="true" class="headerbox" transform="translate(300,110)">
        <rect x="-215" y="-36" width="430" height="50"/>
        <text class="subhead">Machine Learning</text>
      </g>

      <g data-fire="3" data-blank="true" transform="translate(140,600)">
        <text class="label">training data</text>
        <image href="assets/training-line-breaks.jpg" x="-100" y="10" width="200"/>      
      </g>
      <path d="M190,560 L190,520" class="connector" data-fire="5" data-blank="true"/>
      <path d="M250,665 L300,665" class="connector" data-fire="4" data-blank="true"/>

      <g data-fire="4" data-blank="true" transform="translate(470,570)">
        <text transform="translate(30)" class="label">Support Vector Machine
          <tspan x="0" dy="2rem" class="list">ML classifier</tspan>
          <tspan x="0" dy="2rem" class="list">finds line breaks</tspan>
        </text>
        <image href="assets/SVM.jpg" x="-150" y="70" width="300"/>
      </g>
      <path d="M340,620 L340,520" class="connector" data-fire="5" data-blank="true"/>

      <g data-fire="5" data-blank="true" transform="translate(320,170)">
        <text class="label">Bayesian Belief Network
          <tspan x="0" dy="2rem" class="list">ML probability inference system</tspan>
          <tspan x="0" dy="2rem" class="list">finds likeliest trend</tspan>
        </text>
        <rect x="-150" y="70" width="300" height="260" fill="white" stroke="purple" stroke-width="2"/>
        <image href="assets/bayesean-belief-network.png" x="-150" y="70" width="300"/>
      </g>
      <!-- <path d="M370,570 L350,470" class="connector" data-fire="4" data-blank="true"/> -->
      <path d="M490,360 L740,470" class="connector" data-fire="5" data-blank="true"/>



      <g data-fire="3" data-blank="true" class="headerbox" transform="translate(850,110)">
        <rect x="-215" y="-36" width="430" height="50"/>
        <text class="subhead">General</text>
      </g>

      <g data-fire="3" data-blank="true" transform="translate(850,410)">
        <text class="label">Internal data model</text>
        <use href="#gear-icon" x="0" y="-270" width="200" fill="none" stroke="hsl(300, 100%, 25%)" stroke-width="0.8"/>
         <!-- 
        <path data-fire="4" data-blank="true" d="M60,60 L125,60" class="connector"/>
        <path data-fire="4" data-blank="true" d="M-60,60 L-150,60" class="connector"/>
        <path data-fire="4" data-blank="true" d="M35,-30 Q70,-90 335,-80" class="connector"/>
         -->
         <path data-fire="4" data-blank="true" d="M-85,185 L-205,300" class="connector"/>
         <path data-fire="4" data-blank="true" d="M120,155 L320,240" class="connector"/>
         <path data-fire="4" data-blank="true" d="M90,190 L160,260" class="connector"/>
         <path data-fire="9" data-blank="true" d="M100,60 L320,-60" class="connector"/>
       </g>

      <g id="stats" data-fire="6" data-blank="true" transform="translate(850,30)">
        <text class="subhead label" transform="translate(0,130)">detection algorithms</text>

        <g data-fire="6" data-blank="true" transform="translate(-150,190)">
          <text class="label">intersection</text>
          <rect x="-50" y="20" width="100" height="100" fill="white" stroke="purple" stroke-width="4"/>
          <image href="assets/line-intersection.jpg" x="-50" y="20" width="100"/>
          <path d="M0,135 L30,165" class="connector"/>
        </g>

        <g data-fire="7" data-blank="true" transform="translate(0,170)">
          <text class="label">tracking</text>
          <rect x="-50" y="20" width="100" height="100" fill="white" stroke="purple" stroke-width="4"/>
          <image href="assets/line-tracking.jpg" x="-50" y="20" width="100"/>
          <path d="M0,135 L0,165" class="connector"/>
        </g>

        <g data-fire="8" data-blank="true" transform="translate(150,190)">
          <text class="label">spatial clusters</text>
          <rect x="-50" y="20" width="100" height="100" fill="white" stroke="purple" stroke-width="4"/>
          <image href="assets/line-clusters.jpg" x="-50" y="20" width="100"/>
          <path d="M0,135 L-30,165" class="connector"/>
        </g>
      </g>


      <g id="nlg" transform="translate(120,0)">
        <g data-fire="3" data-blank="true" class="headerbox" transform="translate(1250,110)">
          <rect x="-215" y="-36" width="430" height="50"/>
          <text class="subhead">Natural Language Generation</text>
        </g>
          
        <g data-fire="9" data-blank="true" transform="translate(1150,160)">
          <text class="label">Composition Engine</text>
          <use href="#compose-icon" x="-100" y="-360" width="200" fill="hsl(300, 100%, 25%)" stroke="none" />
          <path data-fire="12" data-blank="true" d="M80,180 L185,245" class="connector"/>
        </g>
       
        
        <g data-fire="10" data-blank="true" transform="translate(1440,190)">
          <text class="label">Salience 
            <tspan x="0" dy="2rem">Ranking Model</tspan>
          </text>
          <use href="#salience-icon" x="-50" y="-390" width="100" fill="hsl(300, 100%, 25%)" stroke="hsl(300, 100%, 25%)" stroke-width="0.1"/>
          <path d="M-60,80 L-170,80" class="connector"/>
        </g> 
        
        <g data-fire="11" data-blank="true" transform="translate(1150,450)">
          <text class="label">Sentence Frame Templates</text>
          <use href="#text-icon" x="-50" y="-415" width="100" fill="hsl(300, 100%, 25%)" stroke="hsl(300, 100%, 25%)" stroke-width="0.1"/>
          <path d="M0,-30 L0,-80" class="connector"/>
        </g>


        <g data-fire="12" data-blank="true" transform="translate(1450,380)">
          <text class="label">NLG Realizer</text>
          <use href="#language-icon" x="-100" y="-360" width="200" fill="hsl(300, 100%, 25%)"/>
          <path d="M40,175 V230" class="connector"/>
          <!-- <path d="M-100,175 L-230,250" class="connector"/> -->
        </g>
      </g>

      <g data-fire="4" data-blank="true" transform="translate(1095,715)">
        <text class="label">Chart Generator</text>
        <use href="#draw-icon" x="-120" y="-380" width="240" fill="hsl(300, 100%, 25%)" stroke="hsl(300, 100%, 25%)" stroke-width="0.1"/>
        <path d="M100,80 H300" class="connector"/>
      </g>

      <g data-fire="4" data-blank="true" transform="translate(1250,630)">
        <text class="label">JIM Generator</text>
        <use href="#json-icon" x="-50" y="-420" width="100" fill="hsl(300, 100%, 25%)" stroke="hsl(300, 100%, 25%)" stroke-width="0.1"/>
        <path d="M50,80 H140" class="connector"/>
      </g>

      <g data-fire="4" data-blank="true" transform="translate(1540,650)">
        <text class="label">Interactive Accessible Chart</text>
        <rect x="-120" y="20" width="240" height="220" rx="5" ry="5" fill="none" stroke="purple" stroke-width="4"/>
        <use href="#chart-icon" x="-100" y="-320" width="200" fill="hsl(300, 100%, 25%)" stroke="hsl(300, 100%, 25%)" stroke-width="0.1"/>
      </g>
      

    </g>
  </g>

</svg>
